<svg width="24" height="25" viewBox="0 0 24 25" fill="none" xmlns="http://www.w3.org/2000/svg">
<path d="M1.7276 2.31808C1.62713 1.91624 1.21993 1.67193 0.818082 1.7724C0.416238 1.87287 0.171926 2.28007 0.272397 2.68192L1.7276 2.31808ZM5.76564 17.2854L6.21646 16.686L5.76564 17.2854ZM3.02129 10.7517L3.75064 10.5769L3.02129 10.7517ZM5.58574 17.1435L6.06354 16.5654L5.58574 17.1435ZM22.0192 11.2425L22.7485 11.4173L22.0192 11.2425ZM19.8897 16.8575L19.3643 16.3223L19.8897 16.8575ZM19.0404 17.5273L19.4384 18.163L19.0404 17.5273ZM21.9421 7.25597L22.4568 6.71052L21.9421 7.25597ZM22.3038 7.71465L22.9542 7.3412L22.3038 7.71465ZM14.0001 10.75C13.5859 10.75 13.2501 11.0858 13.2501 11.5C13.2501 11.9142 13.5859 12.25 14.0001 12.25V10.75ZM17.0001 13.75C16.5859 13.75 16.2501 14.0858 16.2501 14.5C16.2501 14.9142 16.5859 15.25 17.0001 15.25V13.75ZM2.05273 7.46053H18.445V5.96053H2.05273V7.46053ZM13.0837 17.5395H12.5791V19.0395H13.0837V17.5395ZM3.75064 10.5769L2.78208 6.53572L1.32339 6.88533L2.29195 10.9265L3.75064 10.5769ZM2.78034 6.52861L1.7276 2.31808L0.272397 2.68192L1.32513 6.89244L2.78034 6.52861ZM12.5791 17.5395C10.7352 17.5395 9.41662 17.5383 8.38995 17.419C7.38226 17.3019 6.738 17.0783 6.21646 16.686L5.31482 17.8848C6.12828 18.4966 7.06459 18.775 8.21679 18.9089C9.35001 19.0406 10.7706 19.0395 12.5791 19.0395V17.5395ZM2.29195 10.9265C2.71343 12.6852 3.04339 14.0669 3.43559 15.1383C3.83435 16.2275 4.32336 17.0731 5.10793 17.7216L6.06354 16.5654C5.56052 16.1496 5.19292 15.5752 4.84416 14.6226C4.48885 13.652 4.18038 12.37 3.75064 10.5769L2.29195 10.9265ZM6.21646 16.686C6.16457 16.647 6.11359 16.6067 6.06354 16.5654L5.10793 17.7216C5.17564 17.7775 5.24462 17.832 5.31482 17.8848L6.21646 16.686ZM13.0837 19.0395C14.6483 19.0395 15.8774 19.0404 16.8659 18.9404C17.8695 18.8389 18.6953 18.6283 19.4384 18.163L18.6424 16.8917C18.1682 17.1885 17.5955 17.359 16.715 17.448C15.8194 17.5386 14.6788 17.5395 13.0837 17.5395V19.0395ZM19.3643 16.3223C19.145 16.5376 18.9029 16.7285 18.6424 16.8917L19.4384 18.163C19.7909 17.9423 20.1184 17.684 20.4151 17.3927L19.3643 16.3223ZM18.445 7.46053C19.4375 7.46053 20.1131 7.46185 20.6157 7.52318C21.106 7.58301 21.3071 7.68794 21.4273 7.80143L22.4568 6.71052C21.9991 6.27856 21.4246 6.11076 20.7974 6.03423C20.1826 5.9592 19.3986 5.96053 18.445 5.96053V7.46053ZM22.7485 11.4173C22.9708 10.49 23.1548 9.72794 23.2251 9.11254C23.2969 8.48475 23.2676 7.88698 22.9542 7.3412L21.6534 8.0881C21.7357 8.2315 21.7909 8.45145 21.7348 8.94219C21.6773 9.44532 21.5212 10.1026 21.2898 11.0677L22.7485 11.4173ZM21.4273 7.80143C21.5163 7.88541 21.5925 7.982 21.6534 8.0881L22.9542 7.3412C22.8202 7.10776 22.6526 6.89527 22.4568 6.71052L21.4273 7.80143ZM21.0001 13.75H17.0001V15.25H21.0001V13.75ZM21.9575 10.75L14.0001 10.75V12.25L21.9575 12.25V10.75ZM21.2898 11.0677C21.269 11.1548 21.2484 11.2405 21.2281 11.3251L22.6868 11.6749C22.7071 11.5903 22.7277 11.5044 22.7485 11.4173L21.2898 11.0677ZM21.2281 11.3251C20.9305 12.5658 20.699 13.5133 20.4566 14.2717L21.8855 14.7283C22.148 13.9067 22.3925 12.9015 22.6868 11.6749L21.2281 11.3251ZM20.4566 14.2717C20.1309 15.291 19.8104 15.8844 19.3643 16.3223L20.4151 17.3927C21.1139 16.7067 21.5286 15.8453 21.8855 14.7283L20.4566 14.2717ZM21.0001 15.25H21.1711V13.75H21.0001V15.25Z" fill="white"/>
<path d="M10.4738 21.4474C10.4738 22.0288 10.0025 22.5 9.42116 22.5C8.83981 22.5 8.36853 22.0288 8.36853 21.4474C8.36853 20.8661 8.83981 20.3948 9.42116 20.3948C10.0025 20.3948 10.4738 20.8661 10.4738 21.4474Z" fill="white"/>
<path d="M16.7896 21.4474C16.7896 22.0288 16.3183 22.5 15.737 22.5C15.1556 22.5 14.6843 22.0288 14.6843 21.4474C14.6843 20.8661 15.1556 20.3948 15.737 20.3948C16.3183 20.3948 16.7896 20.8661 16.7896 21.4474Z" fill="white"/>
</svg>
