<svg width="143" height="33" viewBox="0 0 143 33" fill="none" xmlns="http://www.w3.org/2000/svg">
<path d="M22.5114 15.8633C22.5273 14.7784 22.8548 13.7146 23.4635 12.771C24.0722 11.8273 24.9423 11.0345 25.9928 10.4662C25.3254 9.62757 24.445 8.93742 23.4215 8.45055C22.398 7.96368 21.2595 7.69351 20.0966 7.6615C17.6158 7.43237 15.2108 8.96765 13.9466 8.96765C12.658 8.96765 10.7116 7.68425 8.61567 7.72218C7.25997 7.76072 5.93873 8.1076 4.78069 8.72901C3.62265 9.35043 2.6673 10.2252 2.00773 11.2681C-0.849345 15.6206 1.28178 22.0173 4.01866 25.5356C5.38799 27.2583 6.98833 29.1827 9.08238 29.1145C11.1315 29.0397 11.8968 27.9648 14.3703 27.9648C16.8208 27.9648 17.5388 29.1145 19.6754 29.0711C21.8742 29.0397 23.2595 27.3407 24.5808 25.6016C25.5647 24.374 26.3218 23.0173 26.824 21.5817C25.5466 21.1063 24.4564 20.3106 23.6895 19.2937C22.9226 18.2768 22.5129 17.0837 22.5114 15.8633Z" fill="#14142B"/>
<path d="M18.4759 5.34693C19.6748 4.08059 20.2654 2.45291 20.1224 0.80957C18.2908 0.978839 16.5989 1.74909 15.3838 2.96685C14.7897 3.56175 14.3347 4.25385 14.0448 5.00358C13.7548 5.75331 13.6357 6.54596 13.6941 7.33622C14.6103 7.34452 15.5166 7.1698 16.3449 6.82522C17.1732 6.48064 17.9018 5.97519 18.4759 5.34693V5.34693Z" fill="#14142B"/>
<path d="M47.0958 24.9246H40.3713L38.7564 29.1202H35.9082L42.2775 13.5977H45.2367L51.606 29.1202H48.7092L47.0958 24.9246ZM41.0678 22.9886H46.398L43.7704 16.1795H43.6968L41.0678 22.9886Z" fill="#14142B"/>
<path d="M65.3616 23.4618C65.3616 26.9787 63.2223 29.2382 59.9939 29.2382C59.1761 29.2758 58.3628 29.1101 57.6471 28.7599C56.9314 28.4097 56.3422 27.8893 55.9471 27.2582H55.886V32.8636H53.2458V17.8026H55.8013V19.685H55.8499C56.2632 19.0569 56.8624 18.5391 57.5835 18.1868C58.3047 17.8345 59.1209 17.6608 59.9453 17.6842C63.2098 17.6842 65.3616 19.9547 65.3616 23.4618ZM62.6479 23.4618C62.6479 21.1706 61.3022 19.6642 59.2489 19.6642C57.2317 19.6642 55.8749 21.2023 55.8749 23.4618C55.8749 25.7421 57.2317 27.2692 59.2489 27.2692C61.3022 27.2692 62.6479 25.7738 62.6479 23.4618H62.6479Z" fill="#14142B"/>
<path d="M79.5188 23.4618C79.5188 26.9787 77.3788 29.2382 74.1504 29.2382C73.3326 29.2758 72.5193 29.1101 71.8036 28.7599C71.0879 28.4097 70.4987 27.8893 70.1035 27.2582H70.0425V32.8636H67.4023V17.8026H69.9578V19.685H70.0064C70.4197 19.0569 71.0189 18.5391 71.74 18.1868C72.4612 17.8345 73.2774 17.6608 74.1018 17.6842C77.3663 17.6842 79.5188 19.9547 79.5188 23.4618ZM76.8044 23.4618C76.8044 21.1706 75.4587 19.6642 73.4054 19.6642C71.3882 19.6642 70.0314 21.2023 70.0314 23.4618C70.0314 25.7421 71.3882 27.2692 73.4054 27.2692C75.4587 27.2692 76.8044 25.7738 76.8044 23.4618V23.4618Z" fill="#14142B"/>
<path d="M88.8736 24.7952C89.0693 26.3345 90.7688 27.3452 93.0912 27.3452C95.3165 27.3452 96.9175 26.3345 96.9175 24.9465C96.9175 23.7417 95.9519 23.0203 93.6655 22.5259L91.3792 22.0413C88.1397 21.3528 86.6359 20.0198 86.6359 17.8567C86.6359 15.1785 89.2885 13.3389 93.0537 13.3389C96.7829 13.3389 99.3384 15.1785 99.4244 17.8567H96.7593C96.5998 16.3076 95.1444 15.3726 93.0176 15.3726C90.8908 15.3726 89.4355 16.3186 89.4355 17.6956C89.4355 18.793 90.365 19.4387 92.6389 19.9331L94.5825 20.353C98.2021 21.1062 99.7046 22.3855 99.7046 24.656C99.7046 27.56 97.077 29.3789 92.8955 29.3789C88.9832 29.3789 86.3417 27.6027 86.171 24.7951L88.8736 24.7952Z" fill="#14142B"/>
<path d="M105.405 15.126V17.8042H107.851V19.6438H105.405V25.8828C105.405 26.8521 105.895 27.3037 106.97 27.3037C107.261 27.2993 107.551 27.2813 107.839 27.25V29.0786C107.355 29.1581 106.864 29.194 106.372 29.186C103.768 29.186 102.753 28.3254 102.753 26.1306V19.6438H100.883V17.8042H102.753V15.126H105.405Z" fill="#14142B"/>
<path d="M109.266 23.4634C109.266 19.9026 111.65 17.665 115.366 17.665C119.096 17.665 121.468 19.9025 121.468 23.4634C121.468 27.0339 119.108 29.2617 115.366 29.2617C111.626 29.2617 109.266 27.0339 109.266 23.4634ZM118.778 23.4634C118.778 21.0208 117.506 19.5791 115.366 19.5791C113.227 19.5791 111.955 21.0317 111.955 23.4634C111.955 25.9158 113.227 27.3464 115.366 27.3464C117.506 27.3464 118.778 25.9158 118.778 23.4634H118.778Z" fill="#14142B"/>
<path d="M123.645 17.8025H126.163V19.7288H126.224C126.394 19.1272 126.795 18.5955 127.358 18.2231C127.922 17.8508 128.614 17.6604 129.318 17.6841C129.622 17.6832 129.925 17.7122 130.222 17.7708V19.9436C129.838 19.8404 129.437 19.7929 129.036 19.8032C128.652 19.7896 128.27 19.8491 127.915 19.9777C127.56 20.1063 127.241 20.3009 126.98 20.5483C126.718 20.7957 126.521 21.0899 126.401 21.4107C126.281 21.7315 126.241 22.0714 126.285 22.407V29.1196H123.645L123.645 17.8025Z" fill="#14142B"/>
<path d="M142.395 25.7974C142.04 27.8518 139.766 29.2617 136.856 29.2617C133.115 29.2617 130.792 27.0559 130.792 23.5171C130.792 19.9673 133.127 17.665 136.745 17.665C140.304 17.665 142.542 19.8159 142.542 23.2473V24.0432H133.457V24.1836C133.416 24.6001 133.475 25.0197 133.631 25.4145C133.788 25.8093 134.038 26.1703 134.365 26.4734C134.693 26.7766 135.089 27.0151 135.529 27.173C135.969 27.3308 136.443 27.4045 136.917 27.3892C137.541 27.4406 138.167 27.3135 138.703 27.0266C139.238 26.7398 139.653 26.3087 139.888 25.7974L142.395 25.7974ZM133.47 22.4197H139.9C139.924 22.0452 139.859 21.6704 139.711 21.3189C139.562 20.9674 139.332 20.6467 139.036 20.377C138.74 20.1073 138.383 19.8944 137.989 19.7516C137.595 19.6088 137.172 19.5393 136.745 19.5474C136.316 19.5451 135.889 19.6178 135.491 19.7612C135.094 19.9046 134.732 20.116 134.428 20.383C134.123 20.6501 133.882 20.9675 133.717 21.3171C133.553 21.6667 133.469 22.0414 133.47 22.4197V22.4197Z" fill="#14142B"/>
<path d="M40.7374 1.91423C41.2909 1.87928 41.8463 1.95285 42.3636 2.12964C42.8809 2.30643 43.3471 2.58203 43.7287 2.93657C44.1102 3.2911 44.3976 3.71572 44.5701 4.17981C44.7426 4.6439 44.7958 5.13588 44.726 5.62027C44.726 8.00309 43.2624 9.37277 40.7374 9.37277H37.6755V1.91423H40.7374ZM38.9921 8.31797H40.5903C40.9859 8.33878 41.3817 8.28172 41.749 8.15095C42.1163 8.02018 42.4458 7.819 42.7136 7.56204C42.9813 7.30508 43.1806 6.99882 43.2969 6.66555C43.4132 6.33228 43.4436 5.98038 43.3858 5.63548C43.4394 5.29193 43.406 4.94222 43.2879 4.61139C43.1698 4.28056 42.97 3.9768 42.7028 3.72189C42.4357 3.46698 42.1077 3.26722 41.7425 3.13692C41.3773 3.00663 40.9838 2.94902 40.5903 2.96824H38.9921V8.31797Z" fill="#14142B"/>
<path d="M46.2132 6.55719C46.173 6.18729 46.2211 5.81408 46.3544 5.4615C46.4877 5.10891 46.7033 4.78473 46.9874 4.50976C47.2714 4.23478 47.6177 4.01507 48.0039 3.86473C48.3901 3.71438 48.8077 3.63672 49.23 3.63672C49.6523 3.63672 50.07 3.71438 50.4562 3.86473C50.8424 4.01507 51.1886 4.23478 51.4727 4.50976C51.7567 4.78473 51.9723 5.10891 52.1056 5.4615C52.2389 5.81408 52.287 6.18729 52.2468 6.55719C52.2878 6.92747 52.2403 7.3012 52.1073 7.65435C51.9744 8.00751 51.7589 8.33228 51.4748 8.6078C51.1907 8.88332 50.8442 9.10349 50.4576 9.25415C50.071 9.40482 49.6528 9.48266 49.23 9.48266C48.8072 9.48266 48.3891 9.40482 48.0025 9.25415C47.6159 9.10349 47.2694 8.88332 46.9853 8.6078C46.7012 8.33228 46.4857 8.00751 46.3527 7.65435C46.2198 7.3012 46.1723 6.92747 46.2132 6.55719V6.55719ZM50.9482 6.55719C50.9482 5.3371 50.3253 4.62361 49.2321 4.62361C48.1347 4.62361 47.5174 5.3371 47.5174 6.55721C47.5174 7.78707 48.1348 8.49507 49.2321 8.49507C50.3254 8.49506 50.9483 7.78217 50.9483 6.55719H50.9482Z" fill="#14142B"/>
<path d="M60.2671 9.3728H58.9574L57.6353 5.22729H57.5354L56.2188 9.3728H54.9216L53.1583 3.74414H54.4389L55.5848 8.03914H55.6791L56.9944 3.74414H58.2055L59.5207 8.03914H59.6206L60.761 3.74414H62.0235L60.2671 9.3728Z" fill="#14142B"/>
<path d="M63.5066 3.74359H64.7219V4.63775H64.8163C64.9763 4.3166 65.2462 4.04738 65.5884 3.86762C65.9306 3.68787 66.328 3.60652 66.7252 3.63494C67.0365 3.61434 67.3491 3.65564 67.6397 3.75576C67.9304 3.85588 68.1917 4.01226 68.4044 4.21331C68.617 4.41437 68.7755 4.65494 68.8681 4.91722C68.9608 5.17949 68.9851 5.45675 68.9395 5.72844V9.37219H67.677V6.00739C67.677 5.10285 67.2302 4.65301 66.2966 4.65301C66.0852 4.64435 65.8743 4.676 65.6781 4.74579C65.482 4.81557 65.3053 4.92185 65.1603 5.05733C65.0152 5.19281 64.9051 5.35429 64.8376 5.53071C64.7701 5.70712 64.7467 5.89429 64.7691 6.0794V9.37225H63.5066L63.5066 3.74359Z" fill="#14142B"/>
<path d="M70.951 1.54688H72.2135V9.3728H70.951V1.54688Z" fill="#14142B"/>
<path d="M73.9686 6.55485C73.9284 6.18493 73.9765 5.8117 74.1099 5.4591C74.2432 5.1065 74.4588 4.78231 74.7429 4.50733C75.027 4.23234 75.3732 4.01263 75.7595 3.86229C76.1457 3.71194 76.5634 3.63428 76.9857 3.63428C77.4081 3.63428 77.8257 3.71194 78.212 3.86229C78.5982 4.01263 78.9444 4.23234 79.2285 4.50733C79.5126 4.78231 79.7282 5.1065 79.8616 5.4591C79.9949 5.8117 80.043 6.18493 80.0028 6.55485C80.0438 6.92515 79.9962 7.29888 79.8632 7.65203C79.7302 8.00519 79.5147 8.32995 79.2306 8.60546C78.9464 8.88097 78.5999 9.10113 78.2133 9.25179C77.8267 9.40245 77.4085 9.48029 76.9857 9.48029C76.5629 9.48029 76.1447 9.40245 75.7581 9.25179C75.3715 9.10113 75.025 8.88097 74.7409 8.60546C74.4567 8.32995 74.2412 8.00519 74.1082 7.65203C73.9752 7.29888 73.9277 6.92515 73.9686 6.55485V6.55485ZM78.7036 6.55485C78.7036 5.33477 78.0807 4.62127 76.9874 4.62127C75.8901 4.62127 75.2727 5.33477 75.2727 6.55487C75.2727 7.78473 75.8901 8.49273 76.9874 8.49273C78.0807 8.49272 78.7036 7.77983 78.7036 6.55485H78.7036Z" fill="#14142B"/>
<path d="M81.3319 7.78222C81.3319 6.76903 82.1893 6.18493 83.7112 6.10192L85.444 6.01403V5.5282C85.444 4.93371 84.9973 4.59802 84.1344 4.59802C83.4296 4.59802 82.9412 4.82568 82.8011 5.22363H81.5789C81.7079 4.25683 82.7415 3.63672 84.1926 3.63672C85.7964 3.63672 86.7009 4.33922 86.7009 5.5282V9.37402H85.4856V8.58301H85.3857C85.183 8.86675 84.8983 9.09806 84.5607 9.25332C84.2231 9.40859 83.8448 9.48224 83.4643 9.46676C83.1957 9.49134 82.9243 9.46613 82.6675 9.39275C82.4107 9.31938 82.1742 9.19947 81.9733 9.04076C81.7724 8.88205 81.6115 8.68806 81.5011 8.47129C81.3906 8.25452 81.333 8.01978 81.3319 7.78222V7.78222ZM85.444 7.30126V6.83068L83.8819 6.91857C83.0009 6.97045 82.6013 7.23412 82.6013 7.73033C82.6013 8.23692 83.1008 8.53172 83.7876 8.53172C83.9888 8.54964 84.1921 8.53177 84.3853 8.47915C84.5785 8.42654 84.7577 8.34027 84.9122 8.22546C85.0668 8.11066 85.1935 7.96968 85.2849 7.81091C85.3762 7.65213 85.4303 7.47881 85.444 7.30126V7.30126Z" fill="#14142B"/>
<path d="M88.3602 6.55605C88.3602 4.77749 89.3994 3.65077 91.0156 3.65077C91.4154 3.63457 91.8122 3.71882 92.1596 3.89369C92.5069 4.06856 92.7906 4.32681 92.9773 4.63827H93.0717V1.54688H94.3341V9.3728H93.1244V8.48351H93.0245C92.8233 8.79288 92.5298 9.04792 92.1757 9.22102C91.8216 9.39412 91.4204 9.47869 91.0156 9.46556C89.3883 9.46562 88.3602 8.33889 88.3602 6.55605ZM89.6644 6.55605C89.6644 7.7499 90.304 8.46829 91.3736 8.46829C92.4377 8.46829 93.0953 7.73954 93.0953 6.56094C93.0953 5.38784 92.4308 4.6487 91.3736 4.6487C90.3108 4.6487 89.6643 5.37196 89.6643 6.55605H89.6644Z" fill="#14142B"/>
<path d="M99.5575 6.55719C99.5173 6.18729 99.5654 5.81408 99.6987 5.4615C99.832 5.10891 100.048 4.78473 100.332 4.50976C100.616 4.23478 100.962 4.01507 101.348 3.86473C101.734 3.71438 102.152 3.63672 102.574 3.63672C102.997 3.63672 103.414 3.71438 103.8 3.86473C104.187 4.01507 104.533 4.23478 104.817 4.50976C105.101 4.78473 105.317 5.10891 105.45 5.4615C105.583 5.81408 105.631 6.18729 105.591 6.55719C105.632 6.92747 105.585 7.3012 105.452 7.65435C105.319 8.00751 105.103 8.33228 104.819 8.6078C104.535 8.88332 104.188 9.10349 103.802 9.25415C103.415 9.40482 102.997 9.48266 102.574 9.48266C102.151 9.48266 101.733 9.40482 101.347 9.25415C100.96 9.10349 100.614 8.88332 100.33 8.6078C100.045 8.33228 99.8299 8.00751 99.697 7.65435C99.564 7.3012 99.5165 6.92747 99.5575 6.55719V6.55719ZM104.292 6.55719C104.292 5.3371 103.67 4.62361 102.576 4.62361C101.479 4.62361 100.862 5.3371 100.862 6.55721C100.862 7.78707 101.479 8.49507 102.576 8.49507C103.67 8.49506 104.292 7.78217 104.292 6.55719Z" fill="#14142B"/>
<path d="M107.285 3.74359H108.5V4.63775H108.595C108.755 4.3166 109.025 4.04738 109.367 3.86762C109.709 3.68787 110.106 3.60652 110.504 3.63494C110.815 3.61434 111.127 3.65564 111.418 3.75576C111.709 3.85588 111.97 4.01226 112.183 4.21331C112.395 4.41437 112.554 4.65494 112.647 4.91722C112.739 5.17949 112.764 5.45675 112.718 5.72844V9.37219H111.455V6.00739C111.455 5.10285 111.009 4.65301 110.075 4.65301C109.864 4.64435 109.653 4.676 109.457 4.74579C109.26 4.81557 109.084 4.92185 108.939 5.05733C108.794 5.19281 108.684 5.35429 108.616 5.53071C108.549 5.70712 108.525 5.89429 108.548 6.0794V9.37225H107.285V3.74359Z" fill="#14142B"/>
<path d="M119.852 2.34277V3.76977H121.238V4.70545H119.852V7.59973C119.852 8.18933 120.128 8.44751 120.756 8.44751C120.917 8.44706 121.078 8.4385 121.238 8.42187V9.34716C121.011 9.38285 120.781 9.40183 120.551 9.40392C119.147 9.40392 118.588 8.96935 118.588 7.88415V4.7054H117.572V3.76972H118.588V2.34277H119.852Z" fill="#14142B"/>
<path d="M122.962 1.54688H124.213V4.64869H124.313C124.481 4.32454 124.758 4.0538 125.108 3.87336C125.457 3.69293 125.86 3.61157 126.264 3.64039C126.573 3.62556 126.883 3.67105 127.17 3.7736C127.458 3.87615 127.716 4.03324 127.926 4.23367C128.137 4.43409 128.294 4.6729 128.388 4.93307C128.481 5.19324 128.508 5.46835 128.467 5.73877V9.37281H127.203V6.01281C127.203 5.11376 126.727 4.65844 125.835 4.65844C125.618 4.64278 125.4 4.66903 125.196 4.73534C124.992 4.80166 124.806 4.90644 124.653 5.04237C124.499 5.17829 124.382 5.34206 124.308 5.52224C124.234 5.70241 124.205 5.89462 124.225 6.08544V9.37279H122.962L122.962 1.54688Z" fill="#14142B"/>
<path d="M135.828 7.8519C135.657 8.36632 135.285 8.8113 134.778 9.10899C134.272 9.40667 133.662 9.53811 133.056 9.48031C132.635 9.4901 132.216 9.41907 131.829 9.27216C131.442 9.12525 131.096 8.90598 130.814 8.62955C130.533 8.35313 130.324 8.02618 130.201 7.67141C130.078 7.31663 130.044 6.94252 130.101 6.57505C130.045 6.20644 130.08 5.83152 130.203 5.47568C130.325 5.11984 130.534 4.79138 130.813 4.51254C131.093 4.2337 131.438 4.01099 131.824 3.85948C132.21 3.70797 132.628 3.6312 133.051 3.63437C134.831 3.63437 135.905 4.70437 135.905 6.47187V6.85948H131.387V6.92173C131.368 7.12829 131.397 7.3362 131.474 7.53214C131.551 7.72808 131.673 7.90772 131.834 8.05954C131.994 8.21135 132.189 8.33201 132.405 8.41375C132.622 8.4955 132.855 8.53654 133.091 8.53423C133.393 8.56613 133.699 8.51829 133.97 8.39678C134.241 8.27527 134.465 8.08559 134.613 7.85186L135.828 7.8519ZM131.387 6.03793H134.618C134.634 5.84902 134.605 5.65927 134.533 5.48088C134.46 5.30248 134.346 5.13938 134.198 5.00206C134.05 4.86474 133.87 4.75623 133.672 4.68351C133.473 4.61079 133.259 4.57547 133.044 4.57981C132.825 4.57739 132.609 4.61347 132.406 4.6859C132.204 4.75833 132.02 4.86565 131.866 5.00154C131.712 5.13744 131.59 5.29915 131.508 5.47714C131.425 5.65513 131.384 5.84581 131.387 6.03793H131.387Z" fill="#14142B"/>
</svg>
