<svg width="24" height="25" viewBox="0 0 24 25" fill="none" xmlns="http://www.w3.org/2000/svg">
<path d="M18.3639 11.6978V11.1321C18.3639 11.0474 18.3639 11.0051 18.3634 10.9693C18.3247 8.26392 16.1409 6.08016 13.4355 6.04142C13.3997 6.0409 13.3574 6.0409 13.2728 6.0409H12.7071M21.8996 12.4049V11.4149C21.8996 10.5703 21.8996 10.148 21.8677 9.79197C21.5226 5.93728 18.4677 2.88236 14.613 2.53724C14.257 2.50537 13.8347 2.50537 12.99 2.50537L12.0001 2.50537M8.77785 9.72876C8.32461 10.7685 8.554 11.9798 9.35605 12.7818L11.7529 15.1786C12.5549 15.9807 13.7661 16.2101 14.8059 15.7568C15.8457 15.3036 17.057 15.533 17.859 16.335L19.3172 17.7932C19.3878 17.8639 19.4232 17.8992 19.4518 17.9303C20.1548 18.6955 20.1548 19.8716 19.4518 20.6368C19.4232 20.6679 19.3878 20.7032 19.3172 20.7738L18.4309 21.6602C17.7091 22.382 16.6685 22.685 15.6721 22.4635C8.88248 20.9547 3.57995 15.6522 2.07115 8.86262C1.84971 7.86616 2.15272 6.82563 2.87451 6.10383L3.76085 5.21749C3.8315 5.14685 3.86682 5.11152 3.89794 5.08293C4.6631 4.37985 5.83921 4.37985 6.60436 5.08293C6.63548 5.11152 6.67081 5.14685 6.74145 5.21749L8.19965 6.67569C9.0017 7.47774 9.23109 8.68898 8.77785 9.72876Z" stroke="#27CA7D" stroke-width="1.5" stroke-linecap="round"/>
</svg>
