<svg width="147" height="35" viewBox="0 0 147 35" fill="none" xmlns="http://www.w3.org/2000/svg">
<path d="M47.7052 4.86469C47.7052 5.90673 47.3935 6.73658 46.7692 7.35561C46.06 8.09168 45.1358 8.45996 43.9995 8.45996C42.9114 8.45996 41.9863 8.08683 41.2255 7.33956C40.4633 6.5928 40.083 5.6668 40.083 4.56195C40.083 3.4566 40.4633 2.5311 41.2255 1.78384C41.9863 1.03707 42.9114 0.663442 43.9995 0.663442C44.5394 0.663442 45.0564 0.767919 45.5471 0.976377C46.0379 1.18533 46.4316 1.4627 46.7261 1.81008L46.0634 2.46643C45.5643 1.87613 44.8772 1.58123 43.9995 1.58123C43.206 1.58123 42.5198 1.85722 41.9407 2.40959C41.3615 2.96257 41.072 3.67961 41.072 4.56195C41.072 5.44429 41.3615 6.16133 41.9407 6.71431C42.5198 7.26668 43.206 7.54267 43.9995 7.54267C44.8414 7.54267 45.5432 7.26518 46.1051 6.70946C46.4699 6.3474 46.6808 5.84417 46.7373 5.1979H43.9995V4.3015H47.6527C47.688 4.4964 47.7052 4.68347 47.7052 4.86469" fill="#14142B"/>
<path d="M47.7053 4.86482H47.5796C47.5786 5.8831 47.2782 6.67402 46.6804 7.2678L46.679 7.2688L46.6785 7.26979C45.9918 7.98049 45.1093 8.33422 43.9996 8.33571C42.9405 8.33422 42.0541 7.97664 41.3139 7.25176C40.5753 6.52539 40.2101 5.6387 40.2087 4.56208C40.2101 3.48497 40.5753 2.59877 41.3139 1.8729C42.0541 1.14753 42.9405 0.789448 43.9996 0.787955C44.5233 0.787955 45.022 0.889073 45.4975 1.09069C45.9736 1.2938 46.3497 1.55997 46.6299 1.89044L46.7261 1.81022L46.6373 1.72228L45.9746 2.37912L46.0635 2.46656L46.1602 2.38696C45.6379 1.76743 44.9047 1.45512 43.9996 1.45698C43.1766 1.45599 42.4526 1.74703 41.8538 2.32042C41.2492 2.89566 40.9454 3.653 40.9464 4.56208C40.9454 5.47116 41.2492 6.2285 41.8538 6.80375C42.4526 7.37713 43.1766 7.66818 43.9996 7.66718C44.8693 7.66867 45.6105 7.37663 46.194 6.79753C46.5838 6.41071 46.8046 5.87489 46.8626 5.20873L46.8743 5.07365H44.1252V4.42601H47.6528V4.30164L47.529 4.32353C47.5634 4.51208 47.5796 4.69131 47.5796 4.86482H47.7053H47.8309C47.8309 4.67576 47.8132 4.48149 47.7764 4.27937L47.7578 4.17726H43.8739V5.19803V5.32241H46.7373V5.19803L46.6122 5.18733C46.5567 5.8132 46.3555 6.28447 46.0163 6.62166C45.4764 7.15412 44.8139 7.41693 43.9996 7.41843C43.2354 7.41743 42.5871 7.15698 42.0281 6.62502C41.4745 6.09492 41.199 5.41818 41.1977 4.56208C41.199 3.70599 41.4745 3.02925 42.0281 2.49915C42.5871 1.96718 43.2354 1.70674 43.9996 1.70574C44.8492 1.70773 45.4908 1.98559 45.9673 2.54678L46.0557 2.65076L46.815 1.89815L46.8964 1.81756L46.8222 1.73049C46.5135 1.36619 46.1023 1.07701 45.5967 0.862332C45.0902 0.647034 44.5557 0.539199 43.9996 0.539199C42.8826 0.538204 41.9186 0.926885 41.1367 1.69604C40.3519 2.4637 39.9564 3.42863 39.9574 4.56208C39.9564 5.69504 40.3519 6.66047 41.1372 7.42863C41.9186 8.19728 42.8826 8.58547 43.9996 8.58447C45.1628 8.58547 46.1278 8.203 46.8601 7.44169L46.7692 7.35574L46.858 7.44368C47.5089 6.79989 47.8318 5.93024 47.8309 4.86482H47.7053Z" fill="#14142B"/>
<path d="M53.4967 1.74756H50.0636V4.11373H53.1596V5.0105H50.0636V7.37667H53.4967V8.29346H49.0957V0.830769H53.4967V1.74756Z" fill="#14142B"/>
<path d="M53.4968 1.7477V1.62332H49.938V4.23824H53.034V4.88588L49.938 4.88625V7.50118H53.3711V8.16921H49.2214V0.955283H53.3711V1.7477H53.4968V1.62332V1.7477H53.6224V0.830905V0.706527H48.9701V8.41797H53.6224V7.3768V7.25242H50.1892V5.13501H53.2853V4.11386V3.98949H50.1892V1.87207H53.6224V1.7477H53.4968" fill="#14142B"/>
<path d="M57.5818 8.29346H56.6124V1.74756H54.5068V0.830769H59.6874V1.74756H57.5818V8.29346Z" fill="#14142B"/>
<path d="M57.5817 8.29359V8.16921H56.738V1.62332H54.6324V0.955283H59.5616V1.62332H57.4561V8.29359H57.5817V8.16921V8.29359H57.7073V1.87207H59.8129V0.830905V0.706527H54.3811V1.7477V1.87207H56.4867V8.41797H57.5817H57.7073V8.29359H57.5817" fill="#14142B"/>
<path d="M63.4357 8.29346V0.830769H64.404V8.29346H63.4357Z" fill="#14142B"/>
<path d="M63.4356 8.29359H63.5612V0.955283H64.2783V8.16921H63.4356V8.29359H63.5612H63.4356V8.41797H64.4039H64.5296V0.706527H63.4356H63.3099V8.41797H63.4356V8.29359Z" fill="#14142B"/>
<path d="M68.701 8.29346H67.7317V1.74756H65.6262V0.830769H70.8066V1.74756H68.701V8.29346Z" fill="#14142B"/>
<path d="M68.701 8.29359V8.16921H67.8572V1.62332H65.7518V0.955283H70.6809V1.62332H68.5753V8.29359H68.701V8.16921V8.29359H68.8266V1.87207H70.9322V0.830905V0.706527H65.5005V1.7477V1.87207H67.6059V8.41797H68.701H68.8266V8.29359H68.701" fill="#14142B"/>
<path d="M75.801 6.70411C76.359 7.26332 77.0417 7.54267 77.8491 7.54267C78.6566 7.54267 79.3397 7.26332 79.8968 6.70411C80.4553 6.14491 80.7351 5.43011 80.7351 4.56195C80.7351 3.69379 80.4553 2.97899 79.8968 2.41979C79.3397 1.86058 78.6566 1.58123 77.8491 1.58123C77.0417 1.58123 76.359 1.86058 75.801 2.41979C75.2439 2.97899 74.9642 3.69379 74.9642 4.56195C74.9642 5.43011 75.2439 6.14491 75.801 6.70411ZM80.6134 7.32887C79.8722 8.08334 78.9504 8.45996 77.8491 8.45996C76.7467 8.45996 75.8255 8.08334 75.0859 7.32887C74.3442 6.57526 73.9752 5.65275 73.9752 4.56195C73.9752 3.47115 74.3442 2.54852 75.0859 1.79503C75.8255 1.04043 76.7467 0.663442 77.8491 0.663442C78.9447 0.663442 79.8639 1.04242 80.6085 1.79988C81.352 2.55735 81.7241 3.47799 81.7241 4.56195C81.7241 5.65275 81.3529 6.57526 80.6134 7.32887Z" fill="#14142B"/>
<path d="M75.801 6.70425L75.7117 6.79168C76.2904 7.37328 77.0124 7.66867 77.8492 7.66718C78.6855 7.66867 79.4085 7.37328 79.9862 6.79168C80.5687 6.20959 80.8617 5.45649 80.8608 4.56208C80.8617 3.66768 80.5687 2.91457 79.9862 2.33248C79.4085 1.75089 78.6855 1.45549 77.8492 1.45698C77.0124 1.45549 76.2904 1.75089 75.7117 2.33248C75.1306 2.91457 74.8371 3.66768 74.8386 4.56208C74.8371 5.45649 75.1306 6.20959 75.7117 6.79168L75.801 6.70425L75.8904 6.61681C75.3574 6.07987 75.0909 5.4045 75.0899 4.56208C75.0909 3.71967 75.3574 3.0443 75.8904 2.50736C76.4283 1.97054 77.0707 1.70723 77.8492 1.70574C78.6271 1.70723 79.271 1.97054 79.8075 2.50736C80.3415 3.0443 80.608 3.71967 80.609 4.56208C80.608 5.4045 80.3415 6.07987 79.8075 6.61681C79.271 7.15362 78.6271 7.41693 77.8492 7.41843C77.0707 7.41693 76.4283 7.15362 75.8904 6.61681L75.801 6.70425ZM80.6134 7.329L80.5236 7.24256C79.8031 7.97328 78.9221 8.33422 77.8492 8.33571C76.7758 8.33422 75.8948 7.97328 75.1757 7.24256L75.1723 7.2387L75.1757 7.24256C74.4567 6.50935 74.1019 5.62514 74.1009 4.56208C74.1019 3.49902 74.4567 2.61482 75.1757 1.88161C75.8948 1.15089 76.7758 0.789447 77.8492 0.787954C78.9152 0.789447 79.7942 1.15238 80.5187 1.88696C81.2402 2.62353 81.597 3.50636 81.5985 4.56208C81.597 5.62514 81.2412 6.50935 80.5236 7.24256L80.6134 7.329L80.7038 7.41544C81.4654 6.64106 81.8507 5.68049 81.8498 4.56208C81.8507 3.45002 81.4639 2.49144 80.6987 1.71357C79.9332 0.932729 78.9741 0.53783 77.8492 0.539198C76.7184 0.53783 75.7564 0.930863 74.9956 1.70872V1.70823C74.2325 2.4831 73.8486 3.44368 73.8496 4.56208C73.8486 5.68049 74.2325 6.64106 74.9956 7.41594L74.999 7.41942L74.9956 7.41544C75.7564 8.1933 76.7184 8.58547 77.8492 8.58447C78.9795 8.58547 79.9415 8.1933 80.7038 7.41544L80.6134 7.329" fill="#14142B"/>
<path d="M83.0835 8.29395V0.831255H84.2624L87.9263 6.63673H87.968L87.9263 5.19855V0.831255H88.8957V8.29395H87.8846L84.0513 2.20713H84.0096L84.0513 3.64581V8.29395H83.0835Z" fill="#14142B"/>
<path d="M83.0837 8.29359H83.2093V0.955283H84.1929L87.8567 6.76075H87.9682H88.0972L88.0521 5.19633V0.955283H88.7702V8.16921H87.9545L84.1212 2.0824H84.0098H83.8808L83.9259 3.64745V8.16921H83.0837V8.29359H83.2093H83.0837V8.41797H84.0515H84.1771V3.64347L84.1354 2.20342L84.0098 2.20678V2.33115H84.0515V2.20678L83.945 2.27294L87.815 8.41797H88.8958H89.0215V0.706527H87.9264H87.8008V5.19969L87.8425 6.63974L87.9682 6.63638V6.512H87.9264V6.63638L88.033 6.57033L84.3322 0.706527H83.0837H82.958V8.41797H83.0837V8.29359Z" fill="#14142B"/>
<path d="M122.487 29.4379H124.832V13.8892H122.487V29.4379ZM143.605 19.4902L140.917 26.2313H140.837L138.047 19.4902H135.522L139.705 28.9122L137.32 34.1531H139.766L146.212 19.4902H143.605ZM130.309 27.6719C129.54 27.6719 128.469 27.2919 128.469 26.3513C128.469 25.1512 129.804 24.6911 130.955 24.6911C131.986 24.6911 132.47 24.9112 133.097 25.2115C132.915 26.6516 131.662 27.6719 130.309 27.6719V27.6719ZM130.591 19.15C128.894 19.15 127.136 19.8904 126.409 21.5307L128.489 22.3906C128.934 21.5307 129.762 21.2504 130.632 21.2504C131.844 21.2504 133.077 21.9709 133.097 23.2511V23.4109C132.672 23.1709 131.764 22.8109 130.652 22.8109C128.409 22.8109 126.125 24.0308 126.125 26.3114C126.125 28.3919 127.964 29.7323 130.025 29.7323C131.602 29.7323 132.47 29.0322 133.016 28.2122H133.097V29.4122H135.36V23.4507C135.36 20.6907 133.279 19.15 130.591 19.15V19.15ZM116.102 21.3829H112.767V16.0532H116.102C117.855 16.0532 118.85 17.4898 118.85 18.718C118.85 19.923 117.855 21.3829 116.102 21.3829ZM116.042 13.8892H110.424V29.4379H112.767V23.547H116.042C118.64 23.547 121.194 21.6847 121.194 18.718C121.194 15.7515 118.64 13.8892 116.042 13.8892ZM85.4077 27.6747C83.7879 27.6747 82.4318 26.3323 82.4318 24.4885C82.4318 22.6254 83.7879 21.2625 85.4077 21.2625C87.0068 21.2625 88.2617 22.6254 88.2617 24.4885C88.2617 26.3323 87.0068 27.6747 85.4077 27.6747V27.6747ZM88.0998 20.3608H88.0187C87.4926 19.7398 86.4801 19.1787 85.205 19.1787C82.533 19.1787 80.0839 21.503 80.0839 24.4885C80.0839 27.4542 82.533 29.7586 85.205 29.7586C86.4801 29.7586 87.4926 29.1974 88.0187 28.5566H88.0998V29.3179C88.0998 31.342 87.0068 32.424 85.2457 32.424C83.8086 32.424 82.9178 31.4017 82.5531 30.5403L80.5089 31.3818C81.096 32.7844 82.6547 34.5078 85.2457 34.5078C87.9986 34.5078 90.3265 32.9045 90.3265 28.9972V19.4994H88.0998V20.3608ZM91.9457 29.4379H94.2938V13.8887H91.9457V29.4379ZM97.7553 24.3083C97.6945 22.2643 99.3544 21.2226 100.549 21.2226C101.48 21.2226 102.269 21.6832 102.532 22.345L97.7553 24.3083ZM105.042 22.5451C104.598 21.3625 103.241 19.1787 100.468 19.1787C97.7146 19.1787 95.4275 21.3227 95.4275 24.4686C95.4275 27.4343 97.6945 29.7586 100.731 29.7586C103.18 29.7586 104.598 28.2757 105.184 27.4143L103.363 26.2118C102.756 27.0936 101.925 27.6747 100.731 27.6747C99.5365 27.6747 98.6865 27.1336 98.1397 26.0719L105.285 23.1461L105.042 22.5451ZM48.1142 20.8018V23.046H53.539C53.377 24.3083 52.952 25.23 52.3041 25.8712C51.515 26.653 50.2801 27.5144 48.1142 27.5144C44.7741 27.5144 42.1631 24.8495 42.1631 21.5433C42.1631 18.237 44.7741 15.5717 48.1142 15.5717C49.9158 15.5717 51.2312 16.2732 52.203 17.175L53.8021 15.5921C52.446 14.3094 50.6442 13.3276 48.1142 13.3276C43.5393 13.3276 39.6934 17.0147 39.6934 21.5433C39.6934 26.0719 43.5393 29.7586 48.1142 29.7586C50.5839 29.7586 52.446 28.9574 53.9033 27.4542C55.4012 25.9714 55.867 23.8875 55.867 22.2046C55.867 21.6832 55.8266 21.2027 55.7452 20.8018H48.1142ZM62.0345 27.6747C60.4148 27.6747 59.018 26.3522 59.018 24.4686C59.018 22.565 60.4148 21.2625 62.0345 21.2625C63.6536 21.2625 65.0504 22.565 65.0504 24.4686C65.0504 26.3522 63.6536 27.6747 62.0345 27.6747V27.6747ZM62.0345 19.1787C59.0788 19.1787 56.6699 21.4028 56.6699 24.4686C56.6699 27.5144 59.0788 29.7586 62.0345 29.7586C64.9896 29.7586 67.3985 27.5144 67.3985 24.4686C67.3985 21.4028 64.9896 19.1787 62.0345 19.1787ZM73.7362 27.6747C72.1171 27.6747 70.7202 26.3522 70.7202 24.4686C70.7202 22.565 72.1171 21.2625 73.7362 21.2625C75.3554 21.2625 76.7522 22.565 76.7522 24.4686C76.7522 26.3522 75.3554 27.6747 73.7362 27.6747ZM73.7362 19.1787C70.7806 19.1787 68.3722 21.4028 68.3722 24.4686C68.3722 27.5144 70.7806 29.7586 73.7362 29.7586C76.6914 29.7586 79.1003 27.5144 79.1003 24.4686C79.1003 21.4028 76.6914 19.1787 73.7362 19.1787Z" fill="#14142B"/>
<path d="M1.33085 32.4097L1.2375 32.3212C0.871866 31.9383 0.656006 31.3436 0.656006 30.5736V30.7548V3.24736C0.656006 3.24487 0.656006 3.243 0.656006 3.24101C0.656006 3.24338 0.656006 3.24537 0.656006 3.24785V3.42957C0.656006 2.59574 0.907675 1.96763 1.32935 1.59102L16.8967 17.0008L1.33085 32.4097ZM0.656006 3.23952C0.656006 3.17099 0.65789 3.10445 0.661409 3.0389C0.65789 3.10395 0.656006 3.17099 0.656006 3.23952ZM0.661409 3.03592C0.661409 3.03505 0.661407 3.03405 0.661784 3.03305C0.661407 3.03405 0.661409 3.03505 0.661409 3.03592ZM0.661784 3.02721C0.661784 3.02671 0.661784 3.02621 0.661784 3.02572C0.661784 3.02621 0.661784 3.02671 0.661784 3.02721Z" fill="url(#paint0_linear_1160_18353)"/>
<path d="M22.0851 22.3218L22.2034 22.2552L28.3512 18.7974C28.9373 18.4675 29.328 18.0677 29.5228 17.6445C29.3285 18.0677 28.9377 18.468 28.3512 18.7979L22.2034 22.2557L22.0851 22.3218V22.3218ZM22.0866 22.1396L16.8967 17.0013L22.0861 11.8638L28.3512 15.3872C29.1468 15.8347 29.5935 16.4115 29.6681 17.0008C29.6681 17.0013 29.6681 17.0023 29.6681 17.0031C29.5935 17.5911 29.1468 18.1683 28.3512 18.6157L22.0866 22.1396" fill="url(#paint1_linear_1160_18353)"/>
<path d="M2.44051 32.9966C2.00565 32.9966 1.6262 32.8567 1.3303 32.5924L1.3308 32.5919C1.6267 32.8562 2.00666 32.9966 2.44152 32.9966C2.47921 32.9966 2.51753 32.9956 2.55636 32.9937C2.51703 32.9956 2.47821 32.9966 2.44051 32.9966V32.9966ZM2.44102 32.8144C2.00615 32.8149 1.6267 32.6744 1.3308 32.4101V32.4098L16.8967 17.0009L22.0865 22.1392L3.84863 32.3971C3.34404 32.6803 2.86595 32.8144 2.44102 32.8144V32.8144ZM1.3264 32.589C1.29889 32.5642 1.27187 32.538 1.24536 32.5108L1.3264 32.589Z" fill="url(#paint2_linear_1160_18353)"/>
<path d="M16.8967 17.001L1.32935 1.59115C1.62524 1.32735 2.00419 1.18742 2.43856 1.18742C2.86462 1.18742 3.34308 1.322 3.84869 1.60571L22.0861 11.8635L16.8967 17.001V17.001ZM22.2034 11.7475L3.84869 1.42411C3.34308 1.14028 2.86462 1.0057 2.43856 1.0057C2.43654 1.0057 2.43516 1.0057 2.43315 1.0057C2.43567 1.0057 2.43755 1.0057 2.44056 1.0057C2.86563 1.0057 3.34359 1.13978 3.84869 1.42361L22.2034 11.7475V11.7475Z" fill="url(#paint3_linear_1160_18353)"/>
<path d="M2.55646 32.9937C2.9515 32.9713 3.38887 32.8367 3.84874 32.5787L22.0851 22.3214L3.84874 32.5787C3.38925 32.8372 2.9515 32.9713 2.55646 32.9937V32.9937ZM1.3304 32.5923L1.32651 32.5889C1.32789 32.5899 1.3294 32.5913 1.3304 32.5923ZM1.24547 32.5107L1.23755 32.503V32.5025C1.24056 32.5053 1.24295 32.5082 1.24547 32.5107Z" fill="white"/>
<path d="M22.0851 22.3218L22.2036 22.2552L22.0851 22.3218Z" fill="url(#paint4_linear_1160_18353)"/>
<path d="M2.44162 32.9966C2.00676 32.9966 1.6268 32.8562 1.33091 32.5919L1.3304 32.5924C1.3294 32.5914 1.32789 32.59 1.32651 32.589L1.24547 32.5108C1.24295 32.5083 1.24056 32.5054 1.23755 32.5026L1.33091 32.4101C1.6268 32.6744 2.00626 32.8149 2.44112 32.8144C2.86606 32.8144 3.34414 32.6803 3.84874 32.3971L22.0866 22.1392L22.2035 22.2549L22.0851 22.3215L3.84874 32.5788C3.38887 32.8368 2.9515 32.9713 2.55646 32.9937C2.51764 32.9956 2.47932 32.9966 2.44162 32.9966" fill="url(#paint5_linear_1160_18353)"/>
<path d="M1.2375 32.5034C0.871866 32.1205 0.656006 31.5258 0.656006 30.7558V30.7553C0.656006 31.5258 0.871866 32.12 1.2375 32.5029V32.5034" fill="white"/>
<path d="M1.2375 32.5029C0.871866 32.12 0.656006 31.5258 0.656006 30.7553V30.5741C0.656006 31.3441 0.871866 31.9388 1.2375 32.3217L1.33086 32.4101L1.2375 32.5029" fill="url(#paint6_linear_1160_18353)"/>
<path d="M1.23755 32.5029L1.33106 32.4101V32.4105L1.23755 32.5029" fill="url(#paint7_linear_1160_18353)"/>
<path d="M29.5228 17.6445C29.6196 17.4346 29.6683 17.2189 29.6683 17.0031C29.6683 17.0027 29.6683 17.0022 29.6683 17.0022C29.6683 17.2184 29.6196 17.4341 29.5228 17.6445Z" fill="white"/>
<path d="M22.2034 22.2549L22.0865 22.1392L28.3512 18.6153C29.1468 18.1679 29.5934 17.5907 29.6681 17.0028C29.6681 17.2186 29.6194 17.4342 29.5228 17.6442C29.3279 18.0673 28.9373 18.4672 28.3512 18.797L22.2034 22.2549Z" fill="url(#paint8_linear_1160_18353)"/>
<path d="M29.6681 17.001V17.0005C29.6676 16.3499 29.2283 15.6994 28.3512 15.2057L22.2034 11.7479H22.2029L22.2034 11.7475L28.3512 15.2052C29.2293 15.6989 29.6691 16.3504 29.6681 17.001Z" fill="#4E4B66"/>
<path d="M29.6681 17.0005C29.5934 16.4112 29.1468 15.8344 28.3512 15.3869L22.0861 11.8635L22.2029 11.7479H22.2034L28.3512 15.2057C29.2283 15.6994 29.6676 16.3499 29.6681 17.0005Z" fill="url(#paint9_linear_1160_18353)"/>
<path d="M0.656006 3.24121C0.656006 3.24071 0.656006 3.24022 0.656006 3.23972C0.656006 3.24022 0.656006 3.24071 0.656006 3.24121ZM0.661409 3.0391C0.661409 3.0381 0.661409 3.03711 0.661409 3.03611C0.661409 3.03711 0.661409 3.0381 0.661409 3.0391ZM0.661784 3.03325C0.661784 3.03126 0.661784 3.0294 0.661784 3.02741C0.661784 3.0294 0.661784 3.03126 0.661784 3.03325ZM0.661784 3.02591C0.734534 1.74818 1.4364 1.01012 2.42926 1.00577C1.99879 1.00825 1.62386 1.14818 1.33035 1.40999V1.4095L1.32683 1.41298C1.29592 1.44059 1.26652 1.46982 1.2375 1.49992C0.907675 1.84532 0.699604 2.36273 0.661784 3.02591Z" fill="#4E4B66"/>
<path d="M0.656006 3.42969V3.24797C0.656006 3.24548 0.656006 3.24349 0.656006 3.24113C0.656006 3.24063 0.656006 3.24014 0.656006 3.23964C0.656006 3.17111 0.65789 3.10407 0.661409 3.03902C0.661409 3.03802 0.661409 3.03703 0.661409 3.03603C0.661409 3.03516 0.661407 3.03417 0.661784 3.03317C0.661784 3.03118 0.661784 3.02932 0.661784 3.02733C0.661784 3.02683 0.661784 3.02633 0.661784 3.02583C0.699604 2.36265 0.907676 1.84523 1.2375 1.49984L1.32935 1.59113C0.907676 1.96775 0.656006 2.59586 0.656006 3.42969V3.42969ZM1.32683 1.41289L1.33035 1.40941C1.32935 1.41091 1.32784 1.4119 1.32683 1.41289Z" fill="url(#paint10_linear_1160_18353)"/>
<path d="M22.0861 11.8638L3.84874 1.60593C3.34314 1.32223 2.86467 1.18765 2.43861 1.18765C2.00425 1.18765 1.62529 1.32757 1.3294 1.59138L1.23755 1.50008C1.26657 1.46999 1.29597 1.44076 1.32688 1.41314C1.32789 1.41215 1.3294 1.41116 1.3304 1.41016C1.62391 1.14834 1.99884 1.00842 2.42931 1.00593C2.43031 1.00593 2.4317 1.00593 2.4332 1.00593C2.43521 1.00593 2.4366 1.00593 2.43861 1.00593C2.86467 1.00593 3.34314 1.14051 3.84874 1.42434L22.2035 11.7477L22.203 11.7481L22.0861 11.8638Z" fill="url(#paint11_linear_1160_18353)"/>
<defs>
<linearGradient id="paint0_linear_1160_18353" x1="15.5164" y1="2.95718" x2="-5.35631" y2="24.0428" gradientUnits="userSpaceOnUse">
<stop stop-color="#00A0FF"/>
<stop offset="0.00657445" stop-color="#00A1FF"/>
<stop offset="0.2601" stop-color="#00BEFF"/>
<stop offset="0.5122" stop-color="#00D2FF"/>
<stop offset="0.7604" stop-color="#00DFFF"/>
<stop offset="1" stop-color="#00E3FF"/>
</linearGradient>
<linearGradient id="paint1_linear_1160_18353" x1="30.6375" y1="17.002" x2="0.234718" y2="17.002" gradientUnits="userSpaceOnUse">
<stop stop-color="#FFE000"/>
<stop offset="0.4087" stop-color="#FFBD00"/>
<stop offset="0.7754" stop-color="#FFA500"/>
<stop offset="1" stop-color="#FF9C00"/>
</linearGradient>
<linearGradient id="paint2_linear_1160_18353" x1="19.3199" y1="19.8558" x2="-8.985" y2="48.4494" gradientUnits="userSpaceOnUse">
<stop stop-color="#FF3A44"/>
<stop offset="1" stop-color="#C31162"/>
</linearGradient>
<linearGradient id="paint3_linear_1160_18353" x1="-2.70555" y1="-7.65648" x2="9.93373" y2="5.1117" gradientUnits="userSpaceOnUse">
<stop stop-color="#32A071"/>
<stop offset="0.0685" stop-color="#2DA771"/>
<stop offset="0.4762" stop-color="#15CF74"/>
<stop offset="0.8009" stop-color="#06E775"/>
<stop offset="1" stop-color="#00F076"/>
</linearGradient>
<linearGradient id="paint4_linear_1160_18353" x1="30.6518" y1="17.0022" x2="0.198231" y2="17.0022" gradientUnits="userSpaceOnUse">
<stop stop-color="#CCB300"/>
<stop offset="0.4087" stop-color="#CC9700"/>
<stop offset="0.7754" stop-color="#CC8400"/>
<stop offset="1" stop-color="#CC7D00"/>
</linearGradient>
<linearGradient id="paint5_linear_1160_18353" x1="19.32" y1="19.8558" x2="-8.9849" y2="48.4494" gradientUnits="userSpaceOnUse">
<stop stop-color="#CC2E36"/>
<stop offset="1" stop-color="#9C0E4E"/>
</linearGradient>
<linearGradient id="paint6_linear_1160_18353" x1="15.5164" y1="2.95765" x2="-5.35629" y2="24.0433" gradientUnits="userSpaceOnUse">
<stop stop-color="#008DE0"/>
<stop offset="0.00657445" stop-color="#008DE0"/>
<stop offset="0.2601" stop-color="#00A7E0"/>
<stop offset="0.5122" stop-color="#00B8E0"/>
<stop offset="0.7604" stop-color="#00C4E0"/>
<stop offset="1" stop-color="#00C7E0"/>
</linearGradient>
<linearGradient id="paint7_linear_1160_18353" x1="19.351" y1="19.8563" x2="-8.95302" y2="48.4983" gradientUnits="userSpaceOnUse">
<stop stop-color="#E0333C"/>
<stop offset="1" stop-color="#AB0F56"/>
</linearGradient>
<linearGradient id="paint8_linear_1160_18353" x1="30.6374" y1="17.0016" x2="0.234707" y2="17.0016" gradientUnits="userSpaceOnUse">
<stop stop-color="#E0C500"/>
<stop offset="0.4087" stop-color="#E0A600"/>
<stop offset="0.7754" stop-color="#E09100"/>
<stop offset="1" stop-color="#E08900"/>
</linearGradient>
<linearGradient id="paint9_linear_1160_18353" x1="30.6374" y1="17.0017" x2="0.23474" y2="17.0017" gradientUnits="userSpaceOnUse">
<stop stop-color="#FFE840"/>
<stop offset="0.4087" stop-color="#FFCE40"/>
<stop offset="0.7754" stop-color="#FFBC40"/>
<stop offset="1" stop-color="#FFB540"/>
</linearGradient>
<linearGradient id="paint10_linear_1160_18353" x1="15.5164" y1="2.9573" x2="-5.35632" y2="24.0429" gradientUnits="userSpaceOnUse">
<stop stop-color="#40B8FF"/>
<stop offset="0.00657445" stop-color="#40B9FF"/>
<stop offset="0.2601" stop-color="#40CEFF"/>
<stop offset="0.5122" stop-color="#40DDFF"/>
<stop offset="0.7604" stop-color="#40E7FF"/>
<stop offset="1" stop-color="#40EAFF"/>
</linearGradient>
<linearGradient id="paint11_linear_1160_18353" x1="-2.7055" y1="-7.65626" x2="9.93378" y2="5.11193" gradientUnits="userSpaceOnUse">
<stop stop-color="#65B895"/>
<stop offset="0.0685" stop-color="#62BD95"/>
<stop offset="0.4762" stop-color="#50DB97"/>
<stop offset="0.8009" stop-color="#44ED98"/>
<stop offset="1" stop-color="#40F498"/>
</linearGradient>
</defs>
</svg>
