<svg width="20" height="20" viewBox="0 0 20 20" fill="none" xmlns="http://www.w3.org/2000/svg">
<path d="M14.7143 5.71418H15.5714M4.85716 1.42847H15.1429C17.0364 1.42847 18.5714 2.96349 18.5714 4.85704V15.1428C18.5714 17.0363 17.0364 18.5713 15.1429 18.5713H4.85716C2.96361 18.5713 1.42859 17.0363 1.42859 15.1428V4.85704C1.42859 2.96349 2.96361 1.42847 4.85716 1.42847ZM10 13.4285C8.10647 13.4285 6.57145 11.8934 6.57145 9.99989C6.57145 8.10635 8.10647 6.57132 10 6.57132C11.8936 6.57132 13.4286 8.10635 13.4286 9.99989C13.4286 11.8934 11.8936 13.4285 10 13.4285Z" stroke="#253D4E" stroke-width="1.5"/>
</svg>
