<svg width="20" height="18" viewBox="0 0 20 18" fill="none" xmlns="http://www.w3.org/2000/svg">
<path d="M18.545 1.71436L19.2933 1.66474C19.2734 1.36388 19.0752 1.10422 18.7903 1.00561C18.5054 0.906988 18.1891 0.988591 17.9874 1.21275L18.545 1.71436ZM18.0724 5.3375C18.0724 4.92329 17.7366 4.5875 17.3224 4.5875C16.9082 4.5875 16.5724 4.92329 16.5724 5.3375H18.0724ZM10 6.42864V7.17864H10.75V6.42864H10ZM2.65119 1.71436L3.35357 1.45137C3.24892 1.17187 2.9885 0.981011 2.69046 0.965384C2.39241 0.949757 2.11347 1.11233 1.98016 1.37936L2.65119 1.71436ZM7.42859 12.8572L7.95933 13.3871C8.14287 13.2033 8.21822 12.9376 8.1585 12.6848C8.09878 12.432 7.91249 12.2281 7.66609 12.1458L7.42859 12.8572ZM1.42859 15.1837V14.4337C1.09819 14.4337 0.806705 14.65 0.710847 14.9662C0.61499 15.2823 0.737339 15.624 1.01212 15.8075L1.42859 15.1837ZM16.387 2.90625L15.8307 3.40926L16.101 3.70813L16.4993 3.64779L16.387 2.90625ZM17.7966 1.76397C17.8593 2.70946 17.7997 3.26564 17.6546 3.67469C17.515 4.06808 17.2707 4.39857 16.8035 4.84631L17.8413 5.92934C18.3843 5.40899 18.8165 4.88592 19.0683 4.17618C19.3145 3.48212 19.361 2.68561 19.2933 1.66474L17.7966 1.76397ZM18.0724 6.22965V5.38783H16.5724V6.22965H18.0724ZM18.0724 5.38783V5.3375H16.5724V5.38783H18.0724ZM9.25002 5.5715V6.42864H10.75V5.5715H9.25002ZM13.7048 0.964355C11.199 0.964355 9.25002 3.13992 9.25002 5.5715H10.75C10.75 3.88989 12.1038 2.46436 13.7048 2.46436V0.964355ZM16.5724 6.22965C16.5724 11.4517 12.184 15.9644 7.00002 15.9644V17.4644C13.0417 17.4644 18.0724 12.2506 18.0724 6.22965H16.5724ZM1.94881 1.97734C2.63773 3.81732 5.20345 7.17864 10 7.17864V5.67864C5.99386 5.67864 3.88724 2.8767 3.35357 1.45137L1.94881 1.97734ZM1.98016 1.37936C0.686912 3.96986 0.45079 6.52845 1.36779 8.72291C2.2848 10.9174 4.29373 12.6013 7.19109 13.5686L7.66609 12.1458C5.06174 11.2764 3.45937 9.83783 2.75181 8.14457C2.04424 6.45128 2.17027 4.35681 3.32222 2.04935L1.98016 1.37936ZM6.89785 12.3273C6.18958 13.0367 4.12038 14.4337 1.42859 14.4337V15.9337C4.60528 15.9337 7.03749 14.3104 7.95933 13.3871L6.89785 12.3273ZM16.9433 2.40324C16.1454 1.52073 14.9896 0.964355 13.7048 0.964355V2.46436C14.5476 2.46436 15.3049 2.82768 15.8307 3.40926L16.9433 2.40324ZM16.4993 3.64779C17.4633 3.50179 18.4005 2.99642 19.1026 2.21596L17.9874 1.21275C17.5085 1.74512 16.882 2.07273 16.2747 2.16471L16.4993 3.64779ZM1.01212 15.8075C3.0084 17.1404 4.93142 17.4644 7.00002 17.4644V15.9644C5.11742 15.9644 3.51658 15.6761 1.84506 14.56L1.01212 15.8075Z" fill="#253D4E"/>
</svg>
