<svg width="20" height="20" viewBox="0 0 20 20" fill="none" xmlns="http://www.w3.org/2000/svg">
<path d="M3.14263 15.1432L3.81345 15.4787L4.02093 15.0637L3.74227 14.6928L3.14263 15.1432ZM4.85667 16.8573L5.30715 16.2576L4.93622 15.979L4.52126 16.1865L4.85667 16.8573ZM1.42859 18.5713L0.757768 18.2359C0.613398 18.5247 0.669989 18.8734 0.898259 19.1017C1.12653 19.3299 1.47526 19.3865 1.764 19.2421L1.42859 18.5713ZM6.57145 6.57133L6.12145 5.97133C5.93259 6.11297 5.82145 6.33527 5.82145 6.57133H6.57145ZM13.4286 13.4285V14.1785C13.6498 14.1785 13.8598 14.0808 14.0023 13.9116L13.4286 13.4285ZM7.10412 6.17183L6.65412 5.57183L6.65412 5.57183L7.10412 6.17183ZM8.46893 6.75123L7.72472 6.84425L7.72472 6.84425L8.46893 6.75123ZM8.66231 8.29821L9.40652 8.20519L9.40652 8.20519L8.66231 8.29821ZM8.41787 9.01062L7.88754 8.48029L7.88754 8.48029L8.41787 9.01062ZM13.8086 12.9773L13.2349 12.4942L13.2349 12.4942L13.8086 12.9773ZM13.277 11.577L13.3856 10.8349L13.3856 10.8349L13.277 11.577ZM11.7116 11.3479L11.8202 10.6058L11.8202 10.6058L11.7116 11.3479ZM10.9814 11.59L11.5117 12.1203L11.5117 12.1203L10.9814 11.59ZM0.678599 9.9999C0.678599 12.0977 1.3725 14.0357 2.54299 15.5937L3.74227 14.6928C2.76023 13.3856 2.1786 11.7617 2.1786 9.9999H0.678599ZM10 0.678467C4.85195 0.678467 0.678599 4.85181 0.678599 9.9999H2.1786C2.1786 5.68024 5.68037 2.17847 10 2.17847V0.678467ZM19.3215 9.9999C19.3215 4.85181 15.1481 0.678467 10 0.678467V2.17847C14.3197 2.17847 17.8215 5.68024 17.8215 9.9999H19.3215ZM10 19.3213C15.1481 19.3213 19.3215 15.148 19.3215 9.9999H17.8215C17.8215 14.3196 14.3197 17.8213 10 17.8213V19.3213ZM4.40619 17.4569C5.96426 18.6274 7.90219 19.3213 10 19.3213V17.8213C8.23819 17.8213 6.61437 17.2397 5.30715 16.2576L4.40619 17.4569ZM1.764 19.2421L5.19208 17.5281L4.52126 16.1865L1.09318 17.9005L1.764 19.2421ZM2.47181 14.8078L0.757768 18.2359L2.09941 18.9067L3.81345 15.4787L2.47181 14.8078ZM5.82145 6.57133V7.42848H7.32145V6.57133H5.82145ZM12.5714 14.1785H13.4286V12.6785H12.5714V14.1785ZM5.82145 7.42848C5.82145 11.1564 8.84352 14.1785 12.5714 14.1785V12.6785C9.67195 12.6785 7.32145 10.328 7.32145 7.42848H5.82145ZM7.02145 7.17133L7.55412 6.77183L6.65412 5.57183L6.12145 5.97133L7.02145 7.17133ZM7.72472 6.84425L7.9181 8.39124L9.40652 8.20519L9.21314 6.6582L7.72472 6.84425ZM7.88754 8.48029L6.89826 9.46958L7.95892 10.5302L8.9482 9.54095L7.88754 8.48029ZM7.9181 8.39124C7.9222 8.42405 7.91092 8.45691 7.88754 8.48029L8.9482 9.54095C9.29889 9.19026 9.46803 8.69731 9.40652 8.20519L7.9181 8.39124ZM7.55412 6.77183C7.61994 6.72247 7.71452 6.76262 7.72472 6.84425L9.21314 6.6582C9.06008 5.43373 7.64132 4.83142 6.65412 5.57183L7.55412 6.77183ZM14.0023 13.9116L14.3822 13.4604L13.2349 12.4942L12.8549 12.9454L14.0023 13.9116ZM13.3856 10.8349L11.8202 10.6058L11.603 12.09L13.1684 12.3191L13.3856 10.8349ZM10.4511 11.0596L9.46969 12.041L10.5303 13.1017L11.5117 12.1203L10.4511 11.0596ZM11.8202 10.6058C11.3178 10.5323 10.8101 10.7006 10.4511 11.0596L11.5117 12.1203C11.5357 12.0964 11.5695 12.0851 11.603 12.09L11.8202 10.6058ZM14.3822 13.4604C15.1935 12.497 14.6318 11.0173 13.3856 10.8349L13.1684 12.3191C13.2515 12.3313 13.289 12.4299 13.2349 12.4942L14.3822 13.4604Z" fill="#253D4E"/>
</svg>
