<?xml version="1.0" standalone="no"?>
<!DOCTYPE svg PUBLIC "-//W3C//DTD SVG 20010904//EN"
 "http://www.w3.org/TR/2001/REC-SVG-20010904/DTD/svg10.dtd">
<svg version="1.0" xmlns="http://www.w3.org/2000/svg"
 width="512.000000pt" height="512.000000pt" viewBox="0 0 512.000000 512.000000"
 preserveAspectRatio="xMidYMid meet">
<metadata>
Created by potrace 1.14, written by Peter Selinger 2001-2017
</metadata>
<g transform="translate(0.000000,512.000000) scale(0.100000,-0.100000)"
fill="#000000" stroke="none">
<path d="M445 5110 c-352 -70 -547 -469 -387 -789 l29 -58 -20 -38 c-166 -325
5 -710 357 -800 32 -8 61 -17 64 -19 2 -3 -6 -59 -19 -125 l-23 -121 -35 -5
c-135 -20 -205 -52 -283 -129 -100 -100 -143 -251 -120 -424 14 -106 47 -177
113 -247 49 -51 169 -125 205 -125 12 0 14 -110 14 -670 l0 -670 -43 -21
c-105 -54 -254 -175 -283 -231 -24 -47 -10 -79 69 -155 109 -105 220 -173 338
-207 39 -12 67 -28 95 -57 87 -90 228 -172 349 -204 122 -31 331 -7 458 53 71
34 148 98 183 154 l24 38 1771 0 1770 0 24 26 25 27 0 283 0 283 -24 28 -24
28 -871 3 -871 2 0 100 0 100 35 -15 c19 -8 52 -22 73 -31 125 -55 319 -82
461 -65 348 43 626 238 781 550 59 118 100 289 100 416 0 129 -44 326 -94 423
-9 17 -16 33 -16 35 0 2 36 32 81 67 253 200 397 543 361 864 -44 397 -324
731 -704 840 -48 14 -120 28 -161 32 l-74 6 -12 65 c-57 311 -291 595 -589
716 -212 86 -457 96 -674 26 -321 -103 -565 -368 -647 -702 l-28 -111 -64 -13
c-80 -16 -200 -57 -258 -87 l-45 -23 -31 66 -32 66 23 41 c31 52 64 183 64
249 0 191 -99 370 -262 476 -88 56 -182 83 -293 83 -132 0 -217 -30 -342 -118
l-43 -29 -41 33 c-120 96 -302 140 -454 110z m226 -186 c62 -20 131 -64 165
-108 70 -89 125 -93 194 -15 186 212 514 171 637 -79 25 -51 28 -68 28 -157 0
-109 -13 -153 -67 -229 -36 -51 -36 -89 2 -146 137 -205 70 -468 -145 -566
-152 -70 -315 -38 -436 86 -96 98 -127 99 -215 2 -32 -35 -75 -69 -110 -87
-55 -28 -67 -30 -169 -30 -96 0 -116 3 -158 24 -214 106 -283 369 -147 565 41
61 41 91 -3 162 -56 90 -70 141 -65 237 12 254 245 417 489 341z m2721 -3
c326 -84 564 -352 608 -684 17 -132 32 -147 153 -147 214 -1 447 -108 588
-271 121 -140 181 -277 199 -456 31 -297 -111 -590 -365 -757 -126 -84 -132
-98 -76 -201 102 -185 130 -417 76 -618 -39 -143 -114 -266 -223 -369 -154
-145 -337 -218 -549 -218 -160 0 -293 35 -418 111 l-55 33 0 116 1 115 364
243 365 242 -46 70 c-26 39 -49 70 -51 70 -2 0 -145 -95 -318 -210 l-315 -210
0 665 0 665 365 243 364 243 -47 72 -48 71 -315 -209 -314 -210 -3 730 -2 730
-85 0 -85 0 -2 -1025 -3 -1025 -399 290 c-220 160 -402 287 -406 283 -26 -29
-90 -124 -90 -133 0 -7 -128 -9 -412 -8 l-412 3 -24 118 c-13 66 -22 121 -19
123 2 2 31 11 63 19 215 55 380 231 416 442 14 83 17 88 123 141 70 34 184 67
270 77 82 10 112 27 124 73 6 20 11 51 11 68 0 59 40 189 85 279 107 214 306
369 540 420 94 21 278 19 367 -4z m-2411 -1390 c39 -33 134 -82 192 -101 20
-6 37 -13 37 -14 0 -2 11 -58 25 -126 14 -68 25 -124 25 -126 0 -2 -144 -4
-321 -4 -300 0 -320 1 -315 18 3 9 15 67 27 129 l22 112 54 17 c58 18 155 72
188 105 25 24 24 24 66 -10z m1437 -577 c105 -52 146 -137 140 -287 -4 -106
-21 -151 -81 -209 -38 -37 -95 -60 -179 -73 -23 -4 -45 -15 -58 -32 -20 -25
-20 -36 -20 -719 l0 -694 -347 0 -348 1 -37 53 c-84 121 -270 196 -487 197
-149 0 -270 -44 -411 -150 l-65 -49 -5 666 c-3 367 -9 675 -14 685 -12 25 -58
47 -98 47 -77 0 -180 76 -216 159 -23 53 -22 212 1 273 20 51 88 121 140 143
27 12 201 14 1033 15 l1000 0 52 -26z m577 -322 l160 -117 3 -581 2 -582 -36
-27 c-47 -36 -153 -81 -251 -105 -86 -22 -270 -27 -338 -9 -22 5 -64 17 -92
25 l-53 15 0 488 0 489 33 7 c85 19 182 91 238 178 58 89 72 149 67 293 l-3
121 55 -39 c30 -21 127 -92 215 -156z m165 -1592 l0 -100 -385 0 -385 0 0 66
c0 59 2 65 18 59 101 -40 361 -52 487 -21 74 17 183 57 225 81 14 8 28 14 33
15 4 0 7 -45 7 -100z m-2003 -44 c110 -30 203 -94 203 -141 0 -87 -198 -171
-380 -163 -99 5 -174 34 -278 112 l-63 47 48 39 c56 47 164 106 219 120 49 12
182 4 251 -14z m3793 -395 l0 -171 -1712 0 -1713 1 -35 50 c-19 27 -57 64 -83
83 l-48 34 34 21 c41 25 112 100 121 127 6 19 48 19 1721 23 l1715 4 0 -172z
m-4407 96 c34 -29 79 -63 100 -76 l38 -23 -58 -40 c-32 -22 -76 -58 -99 -80
l-41 -39 -52 20 c-57 22 -168 90 -197 122 -17 19 -17 20 2 34 85 68 197 132
232 134 7 1 41 -23 75 -52z m607 -212 c82 -20 126 -41 170 -81 47 -42 51 -70
16 -111 -88 -104 -361 -148 -506 -81 -70 32 -183 115 -177 131 12 38 187 140
267 156 53 11 153 5 230 -14z"/>
<path d="M1792 2728 l3 -83 85 0 85 0 3 83 3 82 -91 0 -91 0 3 -82z"/>
<path d="M940 2305 l0 -85 130 0 130 0 0 85 0 85 -130 0 -130 0 0 -85z"/>
<path d="M1540 1450 l0 -91 128 3 127 3 0 85 0 85 -127 3 -128 3 0 -91z"/>
</g>
</svg>
